<svg width="16" height="16" viewBox="0 0 16 16" fill="none" xmlns="http://www.w3.org/2000/svg">
<g clip-path="url(#clip0_259_2635)">
<path d="M0.000976266 8.00028C0.000976244 7.50263 0.375584 7.09247 0.858193 7.03642L0.971361 7.02989L12.8722 7.03086L8.9067 2.84085C8.53864 2.45214 8.55608 1.8393 8.94564 1.47204C9.30523 1.13303 9.8562 1.12178 10.2283 1.42779L10.3174 1.51089L15.7359 7.23361C16.0558 7.57139 16.0866 8.08239 15.8258 8.45366L15.7474 8.55122L10.3289 14.4773C9.96769 14.8724 9.35393 14.9004 8.95802 14.54C8.59257 14.2073 8.54049 13.6598 8.81875 13.2669L8.8952 13.1721L12.7363 8.97163L0.971361 8.97066C0.435432 8.97066 0.000976289 8.53621 0.000976266 8.00028Z" fill="white"/>
</g>
<defs>
<clipPath id="clip0_259_2635">
<rect width="16" height="16" fill="white"/>
</clipPath>
</defs>
</svg>
