<svg width="186" height="40" viewBox="0 0 186 40" fill="none" xmlns="http://www.w3.org/2000/svg">
<g clip-path="url(#clip0_176_6214)">
<path d="M177.486 7.07725C177.211 7.49713 176.961 7.89134 176.73 8.26503C176.428 8.85285 176.154 9.54378 175.922 10.0672C176.707 10.0397 177.487 9.9114 178.24 9.68514C182.876 8.16893 179.176 12.0033 175.654 15.8064C173.332 18.3131 171.387 23.0945 170.522 25.4411C170.37 25.8932 170.209 26.2249 170.042 26.6807C170.042 26.684 170.042 26.809 170.042 26.809V26.6807C169.684 27.8405 169.238 28.9714 168.707 30.0626C168.707 30.0626 178.225 23.8326 181.709 15.8083C184.527 9.31751 184.068 4.3784 185.943 2.10548C185.943 2.10361 180.568 2.37233 177.486 7.07725Z" fill="#CE4D32"/>
<path d="M178.239 9.68469C177.487 9.91095 176.708 10.0392 175.922 10.0668C175.826 10.3047 175.707 10.5328 175.568 10.7484C175.399 10.976 175.217 11.1934 175.021 11.3982C171.41 15.1612 165.696 11.4449 161.818 4.74323C161.764 4.66393 161.71 4.58462 161.658 4.50391C163.576 7.6399 165.272 10.9056 166.736 14.2772C170.888 23.506 169.535 28.112 169.535 28.133V28.1284C169.554 28.0733 170.229 26.2319 170.521 25.4393C171.385 23.0927 173.33 18.3112 175.653 15.8046C179.176 12.0029 182.876 8.16847 178.239 9.68469Z" fill="#4786C2"/>
<path d="M176.257 0C174.753 3.28015 172.656 3.91882 168.946 3.62445C165.494 3.34966 160.745 -0.731514 160.787 1.75601C160.772 2.37229 160.9 2.98344 161.161 3.54187C161.373 3.95195 161.594 4.35269 161.819 4.74364C164.394 8.4292 171.189 10.2389 175.68 10.0779C175.761 10.0751 175.843 10.0714 175.923 10.0672C176.157 9.54374 176.429 8.85421 176.73 8.26499C176.905 7.99953 176.977 7.86611 177.116 7.65057C175.359 4.83228 176.257 0 176.257 0Z" fill="#F0B65B"/>
<path d="M175.679 10.0774C171.188 10.2384 164.393 8.42686 161.818 4.74316C165.697 11.4444 171.41 15.1612 175.021 11.3982C175.217 11.1934 175.399 10.976 175.568 10.7483C175.707 10.5328 175.826 10.3046 175.922 10.0667C175.842 10.0695 175.761 10.0746 175.679 10.0774Z" fill="#68C2D3"/>
<path d="M108.852 17.9494C105.947 17.8916 103.147 19.0402 101.12 21.1218C99.0504 23.1881 97.9144 26.0105 97.976 28.9347C97.872 34.9413 102.657 39.8948 108.663 39.9989C114.669 40.1029 119.623 35.3182 119.727 29.3122C119.729 29.1862 119.729 29.0607 119.727 28.9347C119.878 23.0187 115.204 18.1006 109.288 17.9499C109.143 17.9462 108.997 17.9452 108.852 17.9476V17.9494ZM114.2 34.6147C111.269 37.551 106.512 37.5552 103.575 34.6231C103.567 34.6152 103.559 34.6077 103.551 34.5998C102.079 33.0896 101.286 31.0444 101.355 28.9361C101.279 26.8218 102.074 24.7686 103.552 23.2557C106.443 20.3376 111.153 20.3157 114.071 23.2067C114.093 23.2282 114.115 23.2496 114.136 23.2716C115.618 24.777 116.418 26.8246 116.349 28.9361C116.426 31.0411 115.652 33.0882 114.2 34.6147Z" fill="white"/>
<path d="M141.556 39.6716V18.2002H138.426V33.7705L126.004 18.2002H123.479V39.6716H126.61V24.1671L139.032 39.6716H141.556Z" fill="white"/>
<path d="M94.2252 18.2002H91.002V39.6716H94.2252V18.2002Z" fill="white"/>
<path d="M162.45 33.6852C162.481 32.5893 162.15 31.5135 161.509 30.6243C160.903 29.7971 160.08 29.1533 159.132 28.7638C158.152 28.3607 157.07 27.9828 155.919 27.6404C154.769 27.2979 153.684 27.0134 152.7 26.796C151.78 26.6131 150.903 26.2581 150.115 25.7495C149.429 25.3427 149.006 24.6075 148.999 23.8102C148.99 22.8524 149.57 21.9875 150.459 21.6315C151.513 21.1543 152.662 20.9243 153.818 20.9592C156.15 20.9205 158.422 21.6903 160.25 23.1379L161.991 20.8459C160.032 18.9233 157.315 17.9492 153.912 17.9492C151.513 17.9492 149.509 18.5394 147.957 19.7034C146.406 20.8673 145.653 22.2399 145.653 23.9049C145.627 24.8436 145.872 25.7696 146.357 26.5734C146.811 27.3012 147.442 27.9026 148.191 28.3215C149.008 28.7708 149.867 29.1375 150.757 29.416C151.69 29.7146 152.649 29.9758 153.603 30.1965C154.564 30.4181 155.453 30.663 156.242 30.9271C156.993 31.1589 157.685 31.5485 158.272 32.0705C159.321 33.0362 159.39 34.6705 158.424 35.7206C158.267 35.8909 158.088 36.0393 157.892 36.162C156.919 36.7125 155.809 36.9732 154.693 36.9135C151.586 36.9135 149.004 35.9012 147.017 33.9026L145.116 36.1685C146.185 37.3152 147.493 38.2128 148.947 38.7978C150.651 39.5415 152.491 39.9245 154.35 39.9236C156.421 39.987 158.454 39.3651 160.135 38.154C161.608 37.1473 162.478 35.4692 162.45 33.6852Z" fill="white"/>
<path d="M36.4321 30.2366V27.3208L24.8361 27.3063V21.2415H37.242V18.2002H21.5938V39.6716H37.5536V36.6308H24.8156L24.837 30.2366H36.4321Z" fill="white"/>
<path d="M59.9584 36.1265L58.1025 34.0659C56.4995 35.8849 54.1683 36.8944 51.7447 36.8184C49.6416 36.8972 47.5982 36.113 46.0876 34.6476C44.6414 33.2079 43.9061 31.2854 43.9061 28.935C43.9061 26.5655 44.6134 24.6392 46.0055 23.2098C47.3976 21.7804 49.2805 21.0516 51.587 21.0516C53.8091 20.9873 55.9537 21.8713 57.4848 23.4827L59.6075 21.4468C58.7729 20.3663 57.6775 19.5154 56.424 18.9742C54.8443 18.2702 53.1298 17.9199 51.4009 17.9478C48.1716 17.9478 45.525 19.0041 43.5329 21.0876C41.5264 23.1991 40.444 26.0234 40.5247 28.935C40.5247 32.2618 41.5194 34.9532 43.4816 36.9369C45.4438 38.9206 48.1291 39.9226 51.4629 39.9226C53.1993 39.9404 54.9189 39.5784 56.5014 38.8627C57.8674 38.2595 59.0575 37.3176 59.9584 36.1265Z" fill="white"/>
<path d="M14.7464 36.6201C16.7992 34.5963 17.8418 31.9161 17.8418 28.6528C17.8582 27.283 17.6426 25.9203 17.2041 24.6229C16.767 23.4034 16.0868 22.2851 15.2046 21.3362C14.1703 20.2716 12.8878 19.4809 11.4724 19.0349C9.65617 18.447 7.75461 18.1648 5.84558 18.2002H0V21.2415H5.78493C11.5442 21.2415 14.4623 23.7346 14.4623 28.6528C14.4623 31.1072 13.7383 33.0717 12.3116 34.4913C10.885 35.911 8.66667 36.6304 5.72008 36.6304H3.25636L3.21297 27.2998H0.116632V39.6726H5.4397C9.56007 39.6717 12.6919 38.6453 14.7464 36.6201Z" fill="white"/>
<path d="M66.4498 18.2002H63.2256V39.6716H66.4498V18.2002Z" fill="white"/>
<path d="M87.3434 33.6852C87.3738 32.5893 87.0425 31.5135 86.4015 30.6243C85.795 29.7967 84.9716 29.1529 84.0222 28.7638C83.0425 28.3607 81.9602 27.9829 80.8102 27.6404C79.6602 27.298 78.5709 27.0125 77.5912 26.796C76.6712 26.6131 75.7941 26.2581 75.0061 25.7496C74.3203 25.3432 73.8967 24.6075 73.8897 23.8102C73.8813 22.8525 74.4612 21.9875 75.3504 21.6316C76.4043 21.1543 77.5534 20.9243 78.7094 20.9593C81.0407 20.9206 83.3131 21.6903 85.1405 23.138L86.882 20.8469C84.9226 18.9243 82.206 17.9502 78.8032 17.9502C76.4052 17.9502 74.4015 18.5404 72.8475 19.7043C71.2935 20.8683 70.5438 22.2408 70.5438 23.9059C70.5181 24.8445 70.7626 25.771 71.2487 26.5744C71.7027 27.3027 72.3334 27.904 73.0822 28.3225C73.8991 28.7717 74.7584 29.1384 75.6481 29.417C76.5811 29.7146 77.5384 29.9768 78.4939 30.1975C79.4493 30.4181 80.3423 30.664 81.134 30.928C81.8841 31.1599 82.5755 31.5499 83.1624 32.0715C84.2126 33.0353 84.2826 34.6677 83.3187 35.7179C83.161 35.8895 82.9805 36.0393 82.7827 36.1629C81.8095 36.7134 80.6996 36.9742 79.5832 36.9145C76.4762 36.9145 73.8953 35.9021 71.9075 33.9035L70.0068 36.1695C71.0756 37.3162 72.3833 38.2138 73.8379 38.7988C75.5422 39.5425 77.3817 39.9255 79.2408 39.9245C81.3112 39.988 83.3453 39.3661 85.0257 38.155C86.5 37.1487 87.3705 35.4697 87.3434 33.6852Z" fill="white"/>
<path d="M164.625 37.942H163.983V39.6052H163.678V37.942H163.033V37.6729H164.625V37.942Z" fill="white"/>
<path d="M166.579 39.6052V38.2145L166.004 39.2674H165.836L165.258 38.2145V39.6052H164.953V37.6729H165.28L165.92 38.8541L166.559 37.6729H166.885V39.6052H166.579Z" fill="white"/>
</g>
<defs>
<clipPath id="clip0_176_6214">
<rect width="185.944" height="40" fill="white"/>
</clipPath>
</defs>
</svg>
