<svg width="396" height="200" viewBox="0 0 396 200" fill="none" xmlns="http://www.w3.org/2000/svg">
<g clip-path="url(#clip0_176_3816)">
<mask id="mask0_176_3816" style="mask-type:luminance" maskUnits="userSpaceOnUse" x="-17" y="-16" width="413" height="383">
<rect x="-16.5" y="-16" width="412" height="382.624" fill="white"/>
</mask>
<g mask="url(#mask0_176_3816)">
<mask id="mask1_176_3816" style="mask-type:luminance" maskUnits="userSpaceOnUse" x="-59" y="-32" width="630" height="428">
<rect x="-58.2002" y="395.321" width="426.353" height="628.6" transform="rotate(-90 -58.2002 395.321)" fill="white"/>
</mask>
<g mask="url(#mask1_176_3816)">
<path fill-rule="evenodd" clip-rule="evenodd" d="M85.8336 150.572C97.1296 145.215 108.592 139.918 120.143 134.649C102.4 149.917 85.7826 164.703 70.2262 179.023C71.9825 171.138 73.6643 163.416 75.2796 155.881C78.802 154.022 82.3223 152.237 85.8336 150.572Z" fill="#FF9D00"/>
<path fill-rule="evenodd" clip-rule="evenodd" d="M439.363 -91.8103C398.806 13.4393 252.875 71.3068 118.786 133.032C132.969 120.585 147.838 107.843 163.476 94.7756C272.286 3.85046 368.631 -24.4192 439.363 -91.8103Z" fill="#FF211B"/>
<mask id="mask2_176_3816" style="mask-type:luminance" maskUnits="userSpaceOnUse" x="28" y="-256" width="473" height="412">
<path fill-rule="evenodd" clip-rule="evenodd" d="M500.582 21.4844L453.792 -255.466L28.4844 -121.288L75.2743 155.663L500.582 21.4844Z" fill="white"/>
</mask>
<g mask="url(#mask2_176_3816)">
<path fill-rule="evenodd" clip-rule="evenodd" d="M75.2743 155.663C88.5779 89.3422 97.4129 36.4697 109.364 8.14972C163.834 -120.93 320.571 -245.656 441.68 -327.16C443.236 -285.995 447.964 -231.648 451.311 -161.471C452.515 -136.216 448.66 -113.267 440.669 -92.2128C370.124 -24.368 273.905 3.83748 165.358 95.3237C149.758 108.472 134.925 121.294 120.777 133.82C109.061 139.235 97.4337 144.682 85.9767 150.193C82.4153 151.906 78.8456 153.745 75.2743 155.663Z" fill="#FF9D00"/>
</g>
<mask id="mask3_176_3816" style="mask-type:luminance" maskUnits="userSpaceOnUse" x="28" y="-256" width="473" height="412">
<path fill-rule="evenodd" clip-rule="evenodd" d="M500.582 21.4844L453.792 -255.466L28.4844 -121.288L75.2743 155.663L500.582 21.4844Z" fill="white"/>
</mask>
<g mask="url(#mask3_176_3816)">
<path fill-rule="evenodd" clip-rule="evenodd" d="M75.2743 155.663C88.5779 89.3422 97.4129 36.4697 109.364 8.14972C163.834 -120.93 320.571 -245.656 441.68 -327.16C443.236 -285.995 447.964 -231.648 451.311 -161.471C452.515 -136.216 448.66 -113.267 440.669 -92.2128C370.124 -24.368 273.905 3.83748 165.358 95.3237C149.758 108.472 134.925 121.294 120.777 133.82C109.061 139.235 97.4337 144.682 85.9767 150.193C82.4153 151.906 78.8456 153.745 75.2743 155.663Z" fill="#E22819"/>
</g>
<mask id="mask4_176_3816" style="mask-type:luminance" maskUnits="userSpaceOnUse" x="-118" y="156" width="217" height="197">
<path fill-rule="evenodd" clip-rule="evenodd" d="M98.6045 291.518L75.74 156.182L-117.656 217.195L-94.7915 352.531L98.6045 291.518Z" fill="white"/>
</mask>
<g mask="url(#mask4_176_3816)">
<path fill-rule="evenodd" clip-rule="evenodd" d="M-77.6806 347.133C-84.1712 343.846 -90.7778 340.537 -97.471 337.191C-53.8307 257.401 11.4774 190.644 75.74 156.182C74.1446 164.114 72.4814 172.243 70.7447 180.542C3.32368 244.408 -44.3797 299.51 -77.6806 347.133Z" fill="#FF9D00"/>
</g>
<mask id="mask5_176_3816" style="mask-type:luminance" maskUnits="userSpaceOnUse" x="-118" y="156" width="217" height="197">
<path fill-rule="evenodd" clip-rule="evenodd" d="M98.6045 291.518L75.74 156.182L-117.656 217.195L-94.7915 352.531L98.6045 291.518Z" fill="white"/>
</mask>
<g mask="url(#mask5_176_3816)">
<path fill-rule="evenodd" clip-rule="evenodd" d="M-77.6806 347.133C-84.1712 343.846 -90.7778 340.537 -97.471 337.191C-53.8307 257.401 11.4774 190.644 75.74 156.182C74.1446 164.114 72.4814 172.243 70.7447 180.542C3.32368 244.408 -44.3797 299.51 -77.6806 347.133Z" fill="#00D2DF"/>
</g>
<mask id="mask6_176_3816" style="mask-type:luminance" maskUnits="userSpaceOnUse" x="-166" y="-257" width="692" height="595">
<path fill-rule="evenodd" clip-rule="evenodd" d="M525.577 140.247L458.473 -256.943L-165.583 -60.063L-98.4791 337.127L525.577 140.247Z" fill="white"/>
</mask>
<g mask="url(#mask6_176_3816)">
<path fill-rule="evenodd" clip-rule="evenodd" d="M-296.907 210.978C-296.385 160.491 -288.977 109.444 -273.335 59.3696C-227.65 -17.9575 -151.698 -93.8724 -55.5821 -163.428C66.8912 -218.917 230.261 -282.69 440.45 -362.255C440.104 -351.407 440.273 -339.203 440.79 -325.553C319.68 -244.025 162.944 -119.26 108.482 9.87719C96.5326 38.2104 87.7012 91.1078 74.4023 157.461C10.2195 191.912 -54.9961 258.686 -98.563 338.521C-167.313 304.057 -245.094 265.859 -296.907 210.978Z" fill="#FF9D00"/>
</g>
<mask id="mask7_176_3816" style="mask-type:luminance" maskUnits="userSpaceOnUse" x="-166" y="-257" width="692" height="595">
<path fill-rule="evenodd" clip-rule="evenodd" d="M525.577 140.247L458.473 -256.943L-165.583 -60.063L-98.4791 337.127L525.577 140.247Z" fill="white"/>
</mask>
<g mask="url(#mask7_176_3816)">
<path fill-rule="evenodd" clip-rule="evenodd" d="M-296.907 209.611C-296.385 159.124 -288.977 108.077 -273.335 58.0024C-227.65 -19.3247 -151.698 -95.2396 -55.5821 -164.795C66.8912 -220.285 230.261 -284.057 440.45 -363.622C440.104 -352.774 440.273 -340.571 440.79 -326.921C319.68 -245.392 162.944 -120.627 108.482 8.51C96.5326 36.8432 87.7012 89.7407 74.4023 156.093C10.2195 190.544 -54.9961 257.319 -98.563 337.154C-167.313 302.689 -245.094 264.492 -296.907 209.611Z" fill="#FF211B"/>
</g>
<mask id="mask8_176_3816" style="mask-type:luminance" maskUnits="userSpaceOnUse" x="-166" y="-257" width="692" height="595">
<path fill-rule="evenodd" clip-rule="evenodd" d="M525.577 140.247L458.473 -256.943L-165.583 -60.063L-98.4791 337.127L525.577 140.247Z" fill="white"/>
</mask>
<g mask="url(#mask8_176_3816)">
<path fill-rule="evenodd" clip-rule="evenodd" d="M-296.11 210.699C-295.588 160.212 -288.18 109.164 -272.538 59.0903C-226.853 -18.2368 -150.901 -94.1517 -54.7852 -163.707C67.6881 -219.197 231.058 -282.969 441.247 -362.534C440.901 -351.686 441.07 -339.483 441.587 -325.833C320.477 -244.304 163.741 -119.539 109.278 9.59789C97.3294 37.9311 88.498 90.8285 75.1992 157.181C11.0164 191.632 -54.1992 258.407 -97.7661 338.242C-166.516 303.777 -244.297 265.58 -296.11 210.699Z" fill="#3291D3"/>
</g>
</g>
<path fill-rule="evenodd" clip-rule="evenodd" d="M-99.5 290.807C-59.2236 255.013 -3.68655 216.389 72.5 175.312C48.5652 233.817 18.2704 301.132 -22.9655 366.624C-42.331 342.771 -69.4122 317.578 -99.5 290.807Z" fill="#2CC8D8"/>
</g>
</g>
<defs>
<clipPath id="clip0_176_3816">
<rect width="412" height="233" fill="white" transform="translate(-16.5 -16)"/>
</clipPath>
</defs>
</svg>
