<svg width="16" height="16" viewBox="0 0 16 16" fill="none" xmlns="http://www.w3.org/2000/svg">
<g clip-path="url(#clip0_372_14577)">
<path d="M16.001 8.00028C16.001 7.50263 15.6264 7.09247 15.1438 7.03642L15.0306 7.02989L3.12979 7.03086L7.09525 2.84085C7.46331 2.45214 7.44587 1.8393 7.05632 1.47204C6.69672 1.13303 6.14575 1.12178 5.77363 1.42779L5.68454 1.51089L0.266004 7.23361C-0.0538189 7.57139 -0.0846834 8.08239 0.176141 8.45366L0.254508 8.55122L5.67304 14.4773C6.03426 14.8724 6.64803 14.9004 7.04393 14.54C7.40939 14.2073 7.46146 13.6598 7.1832 13.2669L7.10675 13.1721L3.26565 8.97163L15.0306 8.97066C15.5665 8.97066 16.001 8.5362 16.001 8.00028Z" fill="white"/>
</g>
<defs>
<clipPath id="clip0_372_14577">
<rect width="16" height="16" fill="white"/>
</clipPath>
</defs>
</svg>
