<svg width="25" height="24" viewBox="0 0 25 24" fill="none" xmlns="http://www.w3.org/2000/svg">
<path fill-rule="evenodd" clip-rule="evenodd" d="M10.216 14.3333C11.0556 14.3333 11.8292 14.1235 12.537 13.7037C13.2449 13.2839 13.8045 12.7202 14.2161 12.0123C14.6276 11.3045 14.8333 10.5309 14.8333 9.69136C14.8333 8.85185 14.6276 8.07819 14.2161 7.37037C13.8045 6.66255 13.2449 6.10288 12.537 5.69136C11.8292 5.27983 11.0556 5.07407 10.216 5.07407C9.37654 5.07407 8.60288 5.27983 7.89506 5.69136C7.18724 6.10288 6.62346 6.66255 6.2037 7.37037C5.78395 8.07819 5.57407 8.85185 5.57407 9.69136C5.57407 10.5309 5.78395 11.3045 6.2037 12.0123C6.62346 12.7202 7.18724 13.2839 7.89506 13.7037C8.60288 14.1235 9.37654 14.3333 10.216 14.3333ZM16.3889 14.3333L21.5 19.4444L19.9444 21L14.8333 15.8642V15.0494L14.537 14.7778C13.9609 15.2881 13.2984 15.679 12.5494 15.9506C11.8004 16.2222 11.0226 16.358 10.216 16.358C8.99794 16.358 7.87449 16.0617 6.84568 15.4691C5.81687 14.8765 5.00618 14.0782 4.41358 13.0741C3.80452 12.037 3.5 10.9095 3.5 9.69136C3.5 8.47325 3.80041 7.3498 4.40123 6.32099C5.00206 5.29218 5.81687 4.48148 6.84568 3.88889C7.87449 3.29629 8.99794 3 10.216 3C11.4342 3 12.5617 3.30452 13.5988 3.91358C14.6029 4.50618 15.3971 5.31275 15.9815 6.33333C16.5658 7.35391 16.858 8.47325 16.858 9.69136C16.858 10.5144 16.7222 11.3004 16.4506 12.0494C16.179 12.7984 15.7881 13.4609 15.2778 14.037L15.5494 14.3333H16.3889Z" fill="#FF8000"/>
</svg>
