<svg width="42" height="42" viewBox="0 0 42 42" fill="none" xmlns="http://www.w3.org/2000/svg">
<path fill-rule="evenodd" clip-rule="evenodd" d="M2.625 18.2401C2.625 18.6025 2.33116 18.8963 1.96875 18.8963C1.60634 18.8963 1.3125 18.6025 1.3125 18.2401V4.59375C1.3125 2.78457 2.78457 1.3125 4.59375 1.3125H28.2447C30.0539 1.3125 31.526 2.78457 31.526 4.59375V21.7354C31.526 22.0978 31.2321 22.3916 30.8697 22.3916C30.5073 22.3916 30.2135 22.0978 30.2135 21.7354V4.59375C30.2135 3.50812 29.3303 2.625 28.2447 2.625H4.59375C3.50812 2.625 2.625 3.50812 2.625 4.59375V18.2401ZM4.59375 39.3751H25.2195C25.5819 39.3751 25.8757 39.6689 25.8757 40.0314C25.8757 40.3938 25.5819 40.6876 25.2195 40.6876H4.59375C2.78457 40.6876 1.3125 39.2155 1.3125 37.4064V20.6069C1.3125 20.2445 1.60634 19.9507 1.96875 19.9507C2.33116 19.9507 2.625 20.2445 2.625 20.6069V37.4064C2.625 38.492 3.50812 39.3751 4.59375 39.3751ZM27.5885 6.24243C27.5885 5.88002 27.2946 5.58618 26.9322 5.58618H5.90625C5.54384 5.58618 5.25 5.88002 5.25 6.24243V12.4348C5.25 12.7972 5.54384 13.0911 5.90625 13.0911H26.9322C27.2946 13.0911 27.5885 12.7972 27.5885 12.4348V6.24243ZM26.276 11.7786H6.5625V6.89868H26.276V11.7786ZM9.84375 15.615C10.9294 15.615 11.8125 16.4981 11.8125 17.5837V18.8962C11.8125 19.9819 10.9294 20.865 9.84375 20.865H7.21875C6.13312 20.865 5.25 19.9819 5.25 18.8962V17.5837C5.25 16.4981 6.13312 15.615 7.21875 15.615H9.84375ZM9.84375 19.5525C10.2055 19.5525 10.5 19.258 10.5 18.8962V17.5837C10.5 17.222 10.2055 16.9275 9.84375 16.9275H7.21875C6.85698 16.9275 6.5625 17.222 6.5625 17.5837V18.8962C6.5625 19.258 6.85698 19.5525 7.21875 19.5525H9.84375ZM19.7006 17.5837C19.7006 16.4981 18.8175 15.615 17.7319 15.615H15.1069C14.0212 15.615 13.1381 16.4981 13.1381 17.5837V18.8962C13.1381 19.9819 14.0212 20.865 15.1069 20.865H17.7319C18.8175 20.865 19.7006 19.9819 19.7006 18.8962V17.5837ZM18.3881 18.8962C18.3881 19.258 18.0936 19.5525 17.7319 19.5525H15.1069C14.7451 19.5525 14.4506 19.258 14.4506 18.8962V17.5837C14.4506 17.222 14.7451 16.9275 15.1069 16.9275H17.7319C18.0936 16.9275 18.3881 17.222 18.3881 17.5837V18.8962ZM22.9947 15.615H25.6197C26.7053 15.615 27.5884 16.4981 27.5884 17.5837V18.8962C27.5884 19.9819 26.7053 20.865 25.6197 20.865H22.9947C21.9091 20.865 21.0259 19.9819 21.0259 18.8962V17.5837C21.0259 16.4981 21.9091 15.615 22.9947 15.615ZM25.6197 19.5525C25.9815 19.5525 26.2759 19.258 26.2759 18.8962V17.5837C26.2759 17.222 25.9815 16.9275 25.6197 16.9275H22.9947C22.6329 16.9275 22.3384 17.222 22.3384 17.5837V18.8962C22.3384 19.258 22.6329 19.5525 22.9947 19.5525H25.6197ZM11.8125 25.3582C11.8125 24.2725 10.9294 23.3894 9.84375 23.3894H7.21875C6.13312 23.3894 5.25 24.2725 5.25 25.3582V26.6707C5.25 27.7563 6.13312 28.6394 7.21875 28.6394H9.84375C10.9294 28.6394 11.8125 27.7563 11.8125 26.6707V25.3582ZM10.5 26.6707C10.5 27.0324 10.2055 27.3269 9.84375 27.3269H7.21875C6.85698 27.3269 6.5625 27.0324 6.5625 26.6707V25.3582C6.5625 24.9964 6.85698 24.7019 7.21875 24.7019H9.84375C10.2055 24.7019 10.5 24.9964 10.5 25.3582V26.6707ZM17.7319 23.3894C18.8175 23.3894 19.7006 24.2725 19.7006 25.3582V26.6707C19.7006 27.7563 18.8175 28.6394 17.7319 28.6394H15.1069C14.0212 28.6394 13.1381 27.7563 13.1381 26.6707V25.3582C13.1381 24.2725 14.0212 23.3894 15.1069 23.3894H17.7319ZM17.7319 27.3269C18.0936 27.3269 18.3881 27.0324 18.3881 26.6707V25.3582C18.3881 24.9964 18.0936 24.7019 17.7319 24.7019H15.1069C14.7451 24.7019 14.4506 24.9964 14.4506 25.3582V26.6707C14.4506 27.0324 14.7451 27.3269 15.1069 27.3269H17.7319ZM9.84375 31.1638H7.21875C6.13312 31.1638 5.25 32.0469 5.25 33.1326V34.4451C5.25 35.5307 6.13312 36.4138 7.21875 36.4138H9.84375C10.9294 36.4138 11.8125 35.5307 11.8125 34.4451V33.1326C11.8125 32.0469 10.9294 31.1638 9.84375 31.1638ZM10.5 34.4451C10.5 34.8068 10.2055 35.1013 9.84375 35.1013H7.21875C6.85698 35.1013 6.5625 34.8068 6.5625 34.4451V33.1326C6.5625 32.7708 6.85698 32.4763 7.21875 32.4763H9.84375C10.2055 32.4763 10.5 32.7708 10.5 33.1326V34.4451ZM15.1069 31.1638H17.7319C18.8175 31.1638 19.7006 32.0469 19.7006 33.1326V34.4451C19.7006 35.5307 18.8175 36.4138 17.7319 36.4138H15.1069C14.0212 36.4138 13.1381 35.5307 13.1381 34.4451V33.1326C13.1381 32.0469 14.0212 31.1638 15.1069 31.1638ZM17.7319 35.1013C18.0936 35.1013 18.3881 34.8068 18.3881 34.4451V33.1326C18.3881 32.7708 18.0936 32.4763 17.7319 32.4763H15.1069C14.7451 32.4763 14.4506 32.7708 14.4506 33.1326V34.4451C14.4506 34.8068 14.7451 35.1013 15.1069 35.1013H17.7319ZM32.1562 23.6249C30.4595 23.6249 28.8809 24.1285 27.5508 24.9858C27.376 24.0779 26.5778 23.3894 25.6197 23.3894H22.9947C21.9091 23.3894 21.0259 24.2725 21.0259 25.3582V34.445C21.0259 35.5307 21.9091 36.4138 22.9947 36.4138H24.7743C26.2511 38.9639 29.0033 40.6874 32.1562 40.6874C36.8605 40.6874 40.6875 36.8605 40.6875 32.1562C40.6875 27.4519 36.8605 23.6249 32.1562 23.6249ZM22.9947 35.1013C22.6329 35.1013 22.3384 34.8068 22.3384 34.445V25.3582C22.3384 24.9964 22.6329 24.7019 22.9947 24.7019H25.6197C25.9815 24.7019 26.2759 24.9964 26.2759 25.3582V25.9906C24.6466 27.5452 23.625 29.7315 23.625 32.1562C23.625 33.1925 23.82 34.1817 24.1598 35.1013L22.9947 35.1013ZM32.1562 39.3749C28.1758 39.3749 24.9375 36.1366 24.9375 32.1562C24.9375 28.1757 28.1758 24.9374 32.1562 24.9374C36.1367 24.9374 39.375 28.1757 39.375 32.1562C39.375 36.1366 36.1367 39.3749 32.1562 39.3749ZM33.4688 30.1875C33.4688 29.4636 32.8801 28.875 32.1562 28.875C31.4324 28.875 30.8438 29.4636 30.8438 30.1875C30.8438 30.9114 31.4324 31.5 32.1562 31.5C33.6037 31.5 34.7812 32.6776 34.7812 34.125C34.7812 35.3445 33.9414 36.3633 32.8125 36.6568V37.6985C32.8125 38.0609 32.5187 38.3547 32.1562 38.3547C31.7938 38.3547 31.5 38.0609 31.5 37.6985V36.6568C30.3711 36.3633 29.5312 35.3445 29.5312 34.125C29.5312 33.7626 29.8251 33.4687 30.1875 33.4687C30.5499 33.4687 30.8438 33.7626 30.8438 34.125C30.8438 34.8489 31.4324 35.4375 32.1562 35.4375C32.8801 35.4375 33.4688 34.8489 33.4688 34.125C33.4688 33.4011 32.8801 32.8125 32.1562 32.8125C30.7088 32.8125 29.5312 31.6349 29.5312 30.1875C29.5312 28.968 30.3711 27.9492 31.5 27.6557V26.614C31.5 26.2516 31.7938 25.9578 32.1562 25.9578C32.5187 25.9578 32.8125 26.2516 32.8125 26.614V27.6557C33.9414 27.9492 34.7812 28.968 34.7812 30.1875C34.7812 30.5499 34.4874 30.8437 34.125 30.8437C33.7626 30.8437 33.4688 30.5499 33.4688 30.1875Z" fill="white"/>
</svg>
