<svg width="42" height="42" viewBox="0 0 42 42" fill="none" xmlns="http://www.w3.org/2000/svg">
<g clip-path="url(#clip0_259_2672)">
<path fill-rule="evenodd" clip-rule="evenodd" d="M0 40.7695C0 41.4491 0.550896 42 1.23046 42H3.77341H8.69525H13.6171H18.5389H23.4608H28.3826H33.3044H38.2263H40.7692C41.4488 42 41.9997 41.4491 41.9997 40.7695C41.9997 40.09 41.4488 39.5391 40.7692 39.5391H39.4567V16.0783C39.4567 14.9457 38.5386 14.0275 37.406 14.0275H34.1248C32.9921 14.0275 32.074 14.9457 32.074 16.0783V39.5391H29.6131V24.2814C29.6131 23.1488 28.6949 22.2306 27.5623 22.2306H24.2811C23.1485 22.2306 22.2303 23.1488 22.2303 24.2814V39.5391H19.7694V28.7931C19.7694 27.6604 18.8512 26.7423 17.7186 26.7423H14.4374C13.3048 26.7423 12.3866 27.6604 12.3866 28.7931V39.5391H9.92571V31.7462C9.92571 30.6135 9.00756 29.6954 7.87494 29.6954H4.59372C3.4611 29.6954 2.54295 30.6135 2.54295 31.7462V39.5391H1.23046C0.550896 39.5391 0 40.09 0 40.7695ZM34.5349 39.5391V28.0138V16.4885H36.9958V39.5391H34.5349ZM24.6912 39.5391H27.1521V24.6915H24.6912V39.5391ZM14.8476 39.5391V29.2032H17.3085V39.5391H14.8476ZM5.00387 39.5391H7.46479V32.1563H5.00387V39.5391ZM0 25.2087C0 25.8882 0.550896 26.4391 1.23046 26.4391C9.61517 26.4391 17.9323 23.2401 24.7926 18.5972C30.5627 14.6921 35.3856 9.70912 38.3861 4.61065L39.5807 9.06898C39.7566 9.72539 40.4313 10.1149 41.0877 9.93904C41.7441 9.76316 42.1337 9.08845 41.9578 8.43204L39.9429 0.912292C39.767 0.255882 39.0923 -0.133656 38.4359 0.0422287L30.9161 2.05715C30.2597 2.23303 29.8702 2.90774 30.046 3.56415C30.2219 4.22056 30.8966 4.6101 31.553 4.43422L36.3969 3.1363C33.6318 7.93132 29.0373 12.7529 23.4133 16.5591C16.8522 20.9995 9.00752 23.9782 1.23046 23.9782C0.550896 23.9782 0 24.5291 0 25.2087Z" fill="white"/>
</g>
<defs>
<clipPath id="clip0_259_2672">
<rect width="42" height="42" fill="white"/>
</clipPath>
</defs>
</svg>
