<svg width="42" height="42" viewBox="0 0 42 42" fill="none" xmlns="http://www.w3.org/2000/svg">
<g clip-path="url(#clip0_259_1571)">
<path fill-rule="evenodd" clip-rule="evenodd" d="M9.9819 23.0657C9.9819 19.4245 12.9697 16.4453 16.6365 16.2467C17.4513 15.7833 18.0625 15.1874 18.402 14.4592C16.6365 13.5323 15.4142 11.7448 15.4142 9.69252V8.83187C15.0747 8.23603 14.1919 6.64714 14.6673 4.2638C14.871 3.46936 15.4142 2.74111 16.297 2.21148C17.723 1.28463 19.6922 1.01981 21.7972 1.41704C23.9701 -1.89316 28.9271 1.21842 28.2481 4.39621C27.9765 5.58788 27.569 7.04436 26.5505 8.76566V9.62631C26.5505 11.6124 25.5319 13.3337 23.9022 14.2606C24.3096 15.055 24.9208 15.7171 25.8714 16.2467C29.5383 16.4453 32.526 19.4245 32.526 23.0657V24.6546C32.526 25.0518 32.2544 25.3166 31.847 25.3166C31.4396 25.3166 31.168 25.0518 31.168 24.6546V23.0657C31.168 20.2189 28.8592 17.7694 25.9393 17.5708L21.933 21.4768V24.5884C21.933 24.9856 21.6614 25.2504 21.254 25.2504C20.8465 25.2504 20.5749 24.9856 20.5749 24.5884V21.4768L16.5686 17.5708C13.6487 17.7694 11.34 20.2189 11.34 23.0657V24.6546C11.34 25.0518 11.0684 25.3166 10.6609 25.3166C10.2535 25.3166 9.9819 25.0518 9.9819 24.6546V23.0657ZM16.0254 4.59482C15.8216 5.72029 15.9575 6.64714 16.1612 7.24298L16.7044 6.31612C16.9081 5.9189 17.3834 5.65408 17.8588 5.65408H23.9022C24.3096 5.65408 24.7171 5.8527 24.9887 6.18371L25.8035 7.37538C26.4147 6.11751 26.6863 5.05825 26.89 4.13139C27.2974 2.4763 24.3096 0.225367 23.0195 2.07907C22.8837 2.27769 22.8158 2.4763 22.8158 2.4763C22.68 2.80732 22.3404 2.93972 22.0009 2.87352C18.4699 2.07907 16.2291 3.53556 16.0254 4.59482ZM16.8402 8.76566V9.69252C16.8402 12.0097 18.8094 13.7972 21.0503 13.7972C23.2911 13.7972 25.1924 11.9434 25.1924 9.69252V8.83187L23.8343 6.91196H17.8588L16.8402 8.76566ZM22.68 14.8564C21.7293 15.1212 20.7786 15.1874 19.7601 14.9226C19.3527 15.7171 18.7415 16.4453 17.8588 17.0411L21.254 20.2851L24.5813 17.0411C23.6985 16.3791 23.0874 15.7171 22.68 14.8564ZM23.4948 22.6685C23.4948 22.2713 23.7664 22.0064 24.1738 22.0064H28.8592C29.2666 22.0064 29.5383 22.2713 29.5383 22.6685C29.5383 23.0657 29.2666 23.3305 28.8592 23.3305H24.1738C23.7664 23.3305 23.4948 23.0657 23.4948 22.6685ZM41.6931 27.8324C41.2857 27.1041 40.5387 26.7069 39.7918 26.5083C39.0448 26.3759 38.2979 26.5083 37.6867 26.9055C37.5287 26.9826 37.3131 27.1437 37.02 27.3628L37.02 27.3628C36.3057 27.8968 35.1309 28.775 33.2051 29.6199C32.8656 29.7523 32.7298 30.1495 32.8656 30.4805C33.0014 30.7453 33.2051 30.8778 33.4767 30.8778C34.0878 30.8778 37.2793 28.9578 38.4337 27.9648C38.7053 27.7662 39.1127 27.7 39.4523 27.7662L39.4525 27.7663C39.4807 27.78 39.4971 27.788 39.5134 27.7963C39.5363 27.8079 39.559 27.8199 39.6133 27.8488C39.7066 27.8985 39.8933 27.9977 40.335 28.2296C40.6745 28.5606 40.6745 28.9578 40.4708 29.3551C40.4144 29.465 38.4856 31.2636 37.7936 31.9088L37.7935 31.9089C37.6522 32.0408 37.5625 32.1244 37.5509 32.1356L37.2119 32.4595C34.0396 35.4904 30.5356 38.8382 28.0444 39.2856C27.653 39.3429 27.2948 39.3963 26.965 39.4455C25.0019 39.7385 24.0483 39.8808 23.1237 39.7732C22.2503 39.6716 21.4029 39.347 19.7549 38.7157C19.373 38.5694 18.9481 38.4067 18.4699 38.2264C15.0068 36.9023 11.0005 36.5713 7.67316 38.3588C7.33364 38.5574 7.19783 38.9546 7.40154 39.2856C7.60525 39.6167 8.01268 39.7491 8.3522 39.5505C11.2042 38.0278 14.8031 38.3588 17.7909 39.418C18.0514 39.5309 18.2992 39.6398 18.5369 39.7442C21.6453 41.1098 23.0269 41.7167 28.4518 40.6097C31.186 40.0246 34.3132 37.0768 38.2835 33.3342L38.2835 33.3342L38.5016 33.1287C40.6209 31.0624 40.9181 30.8319 41.2313 30.589L41.2857 30.5467C42.0326 29.8847 42.2363 28.693 41.6931 27.8324ZM0 38.9546C0 38.5574 0.271616 38.2926 0.67904 38.2926C1.01856 38.2926 1.35808 38.5574 1.35808 38.9546V40.6759H4.82119V30.2819H1.35808V35.7768C1.35808 36.1741 1.08646 36.4389 0.67904 36.4389C0.271616 36.4389 0 36.1741 0 35.7768V29.6199C0 29.2227 0.271616 28.9578 0.67904 28.9578H5.50023C5.90765 28.9578 6.17927 29.2227 6.17927 29.6199V30.8778C6.85749 30.3761 7.29407 29.8195 7.71649 29.281C8.52056 28.2559 9.27332 27.2962 11.5437 26.9055C15.211 26.3235 17.7536 27.3341 20.9205 28.5929C22.7965 29.3385 24.8915 30.1712 27.569 30.8116C28.8592 31.1426 30.8284 31.3412 30.8284 31.3412C32.7298 31.7384 33.7483 33.8569 32.6618 35.3796C31.6678 36.7257 29.3264 36.0137 27.8292 35.5584C27.4854 35.4539 27.1861 35.3629 26.9579 35.3134C24.9887 34.85 21.3898 34.3204 18.6057 35.6444C18.2662 35.843 17.8588 35.7106 17.723 35.3796C17.5192 35.0486 17.6551 34.6514 17.9946 34.519C20.7107 33.1949 24.3097 33.3273 27.1616 34.0555C27.0937 34.0555 30.1494 35.1148 31.4396 34.7176C32.1186 34.2542 31.7112 32.8639 30.4889 32.5991C30.3917 32.5833 30.2598 32.5675 30.0903 32.5472C29.5492 32.4824 28.6256 32.3719 27.2295 32.0694C24.5932 31.4587 22.4886 30.6229 20.6034 29.8742C17.5844 28.6753 15.128 27.6998 11.9511 28.2296C9.99057 28.5354 9.52441 29.1503 8.85293 30.036C8.36157 30.6841 7.76026 31.4773 6.38298 32.4004C6.34903 32.4004 6.31508 32.417 6.28112 32.4335C6.24717 32.4501 6.21322 32.4667 6.17927 32.4667V41.338C6.17927 41.7352 5.90765 42 5.50023 42H0.67904C0.271616 42 0 41.7352 0 41.338V38.9546Z" fill="white"/>
</g>
<defs>
<clipPath id="clip0_259_1571">
<rect width="42" height="42" fill="white"/>
</clipPath>
</defs>
</svg>
