<svg width="104" height="16" viewBox="0 0 104 16" fill="none" xmlns="http://www.w3.org/2000/svg">
<path fill-rule="evenodd" clip-rule="evenodd" d="M104 0H0V6.31714V16H104V6.31774C104 6.43835 103.959 6.56045 103.87 6.66166L103.816 6.71544L99.9811 10.0375L101.133 14.9739C101.234 15.4081 100.793 15.7552 100.404 15.5837L100.34 15.5503L96 12.9311L91.6602 15.5503C91.2785 15.7807 90.8123 15.4686 90.8552 15.0454L90.8671 14.9739L92.0182 10.0375L88.1844 6.71544C87.8485 6.4244 87.9994 5.88703 88.4123 5.7947L88.4878 5.78317L93.537 5.35489L95.5101 0.699422C95.6935 0.266859 96.3065 0.266859 96.4899 0.699422L98.4623 5.35489L103.512 5.78317C103.813 5.80873 104 6.05908 104 6.31655V0ZM0 6.31714C0 6.08173 0.155471 5.85213 0.412271 5.7947L0.487803 5.78317L5.53701 5.35489L7.51014 0.699422C7.69348 0.266859 8.30652 0.266859 8.48986 0.699422L10.4623 5.35489L15.5122 5.78317C15.9551 5.82075 16.1493 6.34403 15.8699 6.66166L15.8156 6.71544L11.9811 10.0375L13.1329 14.9739C13.2342 15.4081 12.7934 15.7552 12.4041 15.5837L12.3398 15.5503L8 12.9311L3.66018 15.5503C3.27847 15.7807 2.81227 15.4686 2.85517 15.0454L2.86713 14.9739L4.01822 10.0375L0.184415 6.71544C0.0574208 6.60542 0 6.46021 0 6.31714ZM27.537 5.35489L22.4878 5.78317L22.4123 5.7947C21.9994 5.88703 21.8485 6.4244 22.1844 6.71544L26.0182 10.0375L24.8671 14.9739L24.8552 15.0454C24.8123 15.4686 25.2785 15.7807 25.6602 15.5503L30 12.9311L34.3398 15.5503L34.4041 15.5837C34.7934 15.7552 35.2342 15.4081 35.1329 14.9739L33.9811 10.0375L37.8156 6.71544L37.8699 6.66166C38.1493 6.34403 37.9551 5.82075 37.5122 5.78317L32.4623 5.35489L30.4899 0.699422C30.3065 0.266859 29.6935 0.266859 29.5101 0.699422L27.537 5.35489ZM44.4878 5.78317L49.537 5.35489L51.5101 0.699422C51.6935 0.266859 52.3065 0.266859 52.4899 0.699422L54.4623 5.35489L59.5122 5.78317C59.9551 5.82075 60.1493 6.34403 59.8699 6.66166L59.8156 6.71544L55.9811 10.0375L57.1329 14.9739C57.2342 15.4081 56.7934 15.7552 56.4041 15.5837L56.3398 15.5503L52 12.9311L47.6602 15.5503C47.2785 15.7807 46.8123 15.4686 46.8552 15.0454L46.8671 14.9739L48.0182 10.0375L44.1844 6.71544C43.8485 6.4244 43.9994 5.88703 44.4123 5.7947L44.4878 5.78317ZM71.537 5.35489L66.4878 5.78317L66.4123 5.7947C65.9994 5.88703 65.8485 6.4244 66.1844 6.71544L70.0182 10.0375L68.8671 14.9739L68.8552 15.0454C68.8123 15.4686 69.2785 15.7807 69.6602 15.5503L74 12.9311L78.3398 15.5503L78.4041 15.5837C78.7934 15.7552 79.2342 15.4081 79.1329 14.9739L77.9811 10.0375L81.8156 6.71544L81.8699 6.66166C82.1493 6.34403 81.9551 5.82075 81.5122 5.78317L76.4623 5.35489L74.4899 0.699422C74.3065 0.266859 73.6935 0.266859 73.5101 0.699422L71.537 5.35489Z" fill="white"/>
</svg>
