<svg width="104" height="16" viewBox="0 0 104 16" fill="none" xmlns="http://www.w3.org/2000/svg">
<path fill-rule="evenodd" clip-rule="evenodd" d="M5.53701 5.35196L0.487803 5.78024L0.412271 5.79177C-0.000594282 5.8841 -0.151544 6.42147 0.184415 6.71251L4.01822 10.0346L2.86713 14.971L2.85517 15.0424C2.81227 15.4656 3.27847 15.7777 3.66018 15.5473L8 12.9282L12.3398 15.5473L12.4041 15.5808C12.7934 15.7522 13.2342 15.4052 13.1329 14.971L11.9811 10.0346L15.8156 6.71251L15.8699 6.65873C16.1493 6.3411 15.9551 5.81782 15.5122 5.78024L10.4623 5.35196L8.48986 0.696493C8.30652 0.26393 7.69348 0.26393 7.51014 0.696493L5.53701 5.35196Z" fill="#F2BC1A"/>
<path fill-rule="evenodd" clip-rule="evenodd" d="M27.537 5.35196L22.4878 5.78024L22.4123 5.79177C21.9994 5.8841 21.8485 6.42147 22.1844 6.71251L26.0182 10.0346L24.8671 14.971L24.8552 15.0424C24.8123 15.4656 25.2785 15.7777 25.6602 15.5473L30 12.9282L34.3398 15.5473L34.4041 15.5808C34.7934 15.7522 35.2342 15.4052 35.1329 14.971L33.9811 10.0346L37.8156 6.71251L37.8699 6.65873C38.1493 6.3411 37.9551 5.81782 37.5122 5.78024L32.4623 5.35196L30.4899 0.696493C30.3065 0.26393 29.6935 0.26393 29.5101 0.696493L27.537 5.35196Z" fill="#F2BC1A"/>
<path fill-rule="evenodd" clip-rule="evenodd" d="M49.537 5.35196L44.4878 5.78024L44.4123 5.79177C43.9994 5.8841 43.8485 6.42147 44.1844 6.71251L48.0182 10.0346L46.8671 14.971L46.8552 15.0424C46.8123 15.4656 47.2785 15.7777 47.6602 15.5473L52 12.9282L56.3398 15.5473L56.4041 15.5808C56.7934 15.7522 57.2342 15.4052 57.1329 14.971L55.9811 10.0346L59.8156 6.71251L59.8699 6.65873C60.1493 6.3411 59.9551 5.81782 59.5122 5.78024L54.4623 5.35196L52.4899 0.696493C52.3065 0.26393 51.6935 0.26393 51.5101 0.696493L49.537 5.35196Z" fill="#F2BC1A"/>
<path fill-rule="evenodd" clip-rule="evenodd" d="M71.537 5.35196L66.4878 5.78024L66.4123 5.79177C65.9994 5.8841 65.8485 6.42147 66.1844 6.71251L70.0182 10.0346L68.8671 14.971L68.8552 15.0424C68.8123 15.4656 69.2785 15.7777 69.6602 15.5473L74 12.9282L78.3398 15.5473L78.4041 15.5808C78.7934 15.7522 79.2342 15.4052 79.1329 14.971L77.9811 10.0346L81.8156 6.71251L81.8699 6.65873C82.1493 6.3411 81.9551 5.81782 81.5122 5.78024L76.4623 5.35196L74.4899 0.696493C74.3065 0.26393 73.6935 0.26393 73.5101 0.696493L71.537 5.35196Z" fill="#F2BC1A"/>
<path fill-rule="evenodd" clip-rule="evenodd" d="M93.537 5.35196L88.4878 5.78024L88.4123 5.79177C87.9994 5.8841 87.8485 6.42147 88.1844 6.71251L92.0182 10.0346L90.8671 14.971L90.8552 15.0424C90.8123 15.4656 91.2785 15.7777 91.6602 15.5473L96 12.9282L100.34 15.5473L100.404 15.5808C100.793 15.7522 101.234 15.4052 101.133 14.971L99.9811 10.0346L103.816 6.71251L103.87 6.65873C104.149 6.3411 103.955 5.81782 103.512 5.78024L98.4623 5.35196L96.4899 0.696493C96.3065 0.26393 95.6935 0.26393 95.5101 0.696493L93.537 5.35196Z" fill="#F2BC1A"/>
</svg>
