<svg width="104" height="16" viewBox="0 0 104 16" fill="none" xmlns="http://www.w3.org/2000/svg">
<path fill-rule="evenodd" clip-rule="evenodd" d="M5.53701 5.35196L0.487803 5.78024L0.412271 5.79177C-0.000594281 5.8841 -0.151544 6.42147 0.184415 6.71251L4.01822 10.0346L2.86713 14.971L2.85517 15.0424C2.81227 15.4656 3.27847 15.7777 3.66018 15.5473L8 12.9282L12.3398 15.5473L12.4041 15.5808C12.7934 15.7522 13.2342 15.4052 13.1329 14.971L11.9811 10.0346L15.8156 6.71251L15.8699 6.65873C16.1493 6.3411 15.9551 5.81782 15.5122 5.78024L10.4623 5.35196L8.48986 0.696493C8.30652 0.26393 7.69348 0.26393 7.51014 0.696493L5.53701 5.35196ZM8.00003 2.26758L9.60846 6.06252L9.64162 6.12786C9.72867 6.27357 9.88129 6.37044 10.0533 6.38504L14.1653 6.73458L11.0418 9.44027L10.9898 9.49198C10.8779 9.61978 10.8328 9.79499 10.872 9.96327L11.8094 13.9852L8.27495 11.8511L8.20013 11.8136C8.04626 11.7511 7.87003 11.7636 7.7251 11.8511L4.18991 13.9852L5.12804 9.96327L5.13975 9.89089C5.15525 9.72173 5.08889 9.55342 4.95827 9.44027L1.83404 6.73458L5.94671 6.38504C6.14334 6.36836 6.31459 6.24421 6.3916 6.06252L8.00003 2.26758Z" fill="#F2BC1A"/>
<path fill-rule="evenodd" clip-rule="evenodd" d="M27.537 5.35196L22.4878 5.78024L22.4123 5.79177C21.9994 5.8841 21.8485 6.42147 22.1844 6.71251L26.0182 10.0346L24.8671 14.971L24.8552 15.0424C24.8123 15.4656 25.2785 15.7777 25.6602 15.5473L30 12.9282L34.3398 15.5473L34.4041 15.5808C34.7934 15.7522 35.2342 15.4052 35.1329 14.971L33.9811 10.0346L37.8156 6.71251L37.8699 6.65873C38.1493 6.3411 37.9551 5.81782 37.5122 5.78024L32.4623 5.35196L30.4899 0.696493C30.3065 0.26393 29.6935 0.26393 29.5101 0.696493L27.537 5.35196ZM30 2.26758L31.6085 6.06252L31.6416 6.12786C31.7287 6.27357 31.8813 6.37044 32.0533 6.38504L36.1653 6.73458L33.0418 9.44027L32.9898 9.49198C32.8779 9.61978 32.8328 9.79499 32.872 9.96327L33.8094 13.9852L30.275 11.8511L30.2001 11.8136C30.0463 11.7511 29.87 11.7636 29.7251 11.8511L26.1899 13.9852L27.128 9.96327L27.1397 9.89089C27.1553 9.72173 27.0889 9.55342 26.9583 9.44027L23.834 6.73458L27.9467 6.38504C28.1433 6.36836 28.3146 6.24421 28.3916 6.06252L30 2.26758Z" fill="#F2BC1A"/>
<path fill-rule="evenodd" clip-rule="evenodd" d="M49.537 5.35196L44.4878 5.78024L44.4123 5.79177C43.9994 5.8841 43.8485 6.42147 44.1844 6.71251L48.0182 10.0346L46.8671 14.971L46.8552 15.0424C46.8123 15.4656 47.2785 15.7777 47.6602 15.5473L52 12.9282L56.3398 15.5473L56.4041 15.5808C56.7934 15.7522 57.2342 15.4052 57.1329 14.971L55.9811 10.0346L59.8156 6.71251L59.8699 6.65873C60.1493 6.3411 59.9551 5.81782 59.5122 5.78024L54.4623 5.35196L52.4899 0.696493C52.3065 0.26393 51.6935 0.26393 51.5101 0.696493L49.537 5.35196ZM52 2.26758L53.6085 6.06252L53.6416 6.12786C53.7287 6.27357 53.8813 6.37044 54.0533 6.38504L58.1653 6.73458L55.0418 9.44027L54.9898 9.49198C54.8779 9.61978 54.8328 9.79499 54.872 9.96327L55.8094 13.9852L52.275 11.8511L52.2001 11.8136C52.0463 11.7511 51.87 11.7636 51.7251 11.8511L48.1899 13.9852L49.128 9.96327L49.1397 9.89089C49.1553 9.72173 49.0889 9.55342 48.9583 9.44027L45.834 6.73458L49.9467 6.38504C50.1433 6.36836 50.3146 6.24421 50.3916 6.06252L52 2.26758Z" fill="#F2BC1A"/>
<path fill-rule="evenodd" clip-rule="evenodd" d="M71.537 5.35196L66.4878 5.78024L66.4123 5.79177C65.9994 5.8841 65.8485 6.42147 66.1844 6.71251L70.0182 10.0346L68.8671 14.971L68.8552 15.0424C68.8123 15.4656 69.2785 15.7777 69.6602 15.5473L74 12.9282L78.3398 15.5473L78.4041 15.5808C78.7934 15.7522 79.2342 15.4052 79.1329 14.971L77.9811 10.0346L81.8156 6.71251L81.8699 6.65873C82.1493 6.3411 81.9551 5.81782 81.5122 5.78024L76.4623 5.35196L74.4899 0.696493C74.3065 0.26393 73.6935 0.26393 73.5101 0.696493L71.537 5.35196ZM74 2.26758L75.6085 6.06252L75.6416 6.12786C75.7287 6.27357 75.8813 6.37044 76.0533 6.38504L80.1653 6.73458L77.0418 9.44027L76.9898 9.49198C76.8779 9.61978 76.8328 9.79499 76.872 9.96327L77.8094 13.9852L74.275 11.8511L74.2001 11.8136C74.0463 11.7511 73.87 11.7636 73.7251 11.8511L70.1899 13.9852L71.128 9.96327L71.1397 9.89089C71.1553 9.72173 71.0889 9.55342 70.9583 9.44027L67.834 6.73458L71.9467 6.38504C72.1433 6.36836 72.3146 6.24421 72.3916 6.06252L74 2.26758Z" fill="#F2BC1A"/>
<path fill-rule="evenodd" clip-rule="evenodd" d="M93.537 5.35196L88.4878 5.78024L88.4123 5.79177C87.9994 5.8841 87.8485 6.42147 88.1844 6.71251L92.0182 10.0346L90.8671 14.971L90.8552 15.0424C90.8123 15.4656 91.2785 15.7777 91.6602 15.5473L96 12.9282L100.34 15.5473L100.404 15.5808C100.793 15.7522 101.234 15.4052 101.133 14.971L99.9811 10.0346L103.816 6.71251L103.87 6.65873C104.149 6.3411 103.955 5.81782 103.512 5.78024L98.4623 5.35196L96.4899 0.696493C96.3065 0.26393 95.6935 0.26393 95.5101 0.696493L93.537 5.35196ZM96 2.26758L97.6085 6.06252L97.6416 6.12786C97.7287 6.27357 97.8813 6.37044 98.0533 6.38504L102.165 6.73458L99.0418 9.44027L98.9898 9.49198C98.8779 9.61978 98.8328 9.79499 98.872 9.96327L99.8094 13.9852L96.275 11.8511L96.2001 11.8136C96.0463 11.7511 95.87 11.7636 95.7251 11.8511L92.1899 13.9852L93.128 9.96327L93.1397 9.89089C93.1553 9.72173 93.0889 9.55342 92.9583 9.44027L89.834 6.73458L93.9467 6.38504C94.1433 6.36836 94.3146 6.24421 94.3916 6.06252L96 2.26758Z" fill="#F2BC1A"/>
</svg>
