<svg width="60" height="61" viewBox="0 0 60 61" fill="none" xmlns="http://www.w3.org/2000/svg">
<path fill-rule="evenodd" clip-rule="evenodd" d="M53.3289 22.1344L59.6565 15.8067C59.9175 15.5463 60.0402 15.1778 59.988 14.8129C59.9362 14.4481 59.7151 14.1286 59.392 13.951L51.7848 9.77388C51.2177 9.4626 50.5054 9.66996 50.1937 10.2371C49.8824 10.8048 50.0893 11.517 50.6569 11.8283L56.8953 15.2538L51.4649 20.6838L31.9335 9.95881L37.3635 4.52882L42.8525 7.5432C43.4197 7.85448 44.1324 7.64757 44.4437 7.07994C44.7554 6.51277 44.5481 5.80003 43.9804 5.48875L37.7205 2.05095C37.2637 1.8001 36.696 1.88112 36.328 2.24962L29.9999 8.57774L23.6718 2.24962C23.3033 1.88112 22.7356 1.80055 22.2792 2.05095L0.607813 13.951C0.284632 14.1286 0.0635321 14.4476 0.0118047 14.8129C-0.0403802 15.1778 0.0823004 15.5463 0.343226 15.8067L6.67089 22.1344L0.343226 28.4616C0.0823004 28.7225 -0.0403802 29.0906 0.0118047 29.4559C0.0635321 29.8207 0.284632 30.1402 0.607813 30.3174L7.15658 33.9136V45.9335C7.15658 46.3615 7.38958 46.7552 7.76449 46.9612L29.4359 58.8608C29.6117 58.9573 29.8058 59.0054 29.9999 59.0054C30.194 59.0054 30.3881 58.9573 30.5639 58.8608L52.2353 46.9612C52.6102 46.7552 52.8432 46.3615 52.8432 45.9335V33.9136L59.392 30.3178C59.7151 30.1402 59.9362 29.8207 59.988 29.4559C60.0402 29.091 59.9175 28.7225 59.6565 28.4621L53.3289 22.1344ZM29.9999 32.6968L10.7633 22.1339L29.9999 11.5706L49.2365 22.1339L29.9999 32.6968ZM22.6368 4.52882L28.0663 9.95881L8.5349 20.6838L3.10491 15.2538L22.6368 4.52882ZM8.53582 23.5846L28.0672 34.3095L22.6368 39.74L3.10491 29.015L8.53582 23.5846ZM50.4994 45.2405L31.1718 55.8533V43.874C31.1718 43.2268 30.6472 42.7022 29.9999 42.7022C29.3526 42.7022 28.828 43.2268 28.828 43.874V55.8533L9.50032 45.2405V35.2008L22.2792 42.2179C22.4564 42.3149 22.6505 42.3625 22.8428 42.3625C23.1463 42.3625 23.4465 42.2444 23.6718 42.0192L29.9999 35.6911L36.328 42.0192C36.5532 42.2449 36.8535 42.3625 37.157 42.3625C37.3493 42.3625 37.5434 42.3149 37.7205 42.2179L50.4994 35.2008V45.2405ZM37.3635 39.74L31.933 34.3091L51.4644 23.5846L56.8953 29.0146L37.3635 39.74ZM47.4375 9.89569C47.7456 9.89569 48.0468 9.77026 48.2661 9.55191C48.4839 9.33401 48.6094 9.03189 48.6094 8.72382C48.6094 8.41528 48.4839 8.11316 48.2661 7.89526C48.0482 7.67691 47.7456 7.55194 47.4375 7.55194C47.1281 7.55194 46.8268 7.67691 46.6089 7.89526C46.3897 8.11316 46.2656 8.41528 46.2656 8.72382C46.2656 9.03189 46.3897 9.33401 46.6089 9.55191C46.8268 9.77026 47.1294 9.89569 47.4375 9.89569ZM29.1714 39.155C29.3893 38.9367 29.6919 38.8117 30 38.8117C30.3081 38.8117 30.6107 38.9367 30.8286 39.155C31.0464 39.3738 31.1719 39.675 31.1719 39.9836C31.1719 40.2926 31.0464 40.5938 30.8286 40.813C30.6107 41.0309 30.3081 41.1555 30 41.1555C29.6919 41.1555 29.3893 41.0309 29.1714 40.813C28.9536 40.5938 28.8281 40.2926 28.8281 39.9836C28.8281 39.675 28.9536 39.3738 29.1714 39.155Z" fill="#C2C2C2"/>
</svg>
